<svg height="18.899" viewBox="0 0 18.75 18.899" width="18.75" xmlns="http://www.w3.org/2000/svg">
    <g data-name="ui 1" id="ui_1" transform="translate(-53.5 -18.476)">
        <g id="Group">
            <path d="M63.487,20.579a.938.938,0,0,0-1.225,0L55.7,26.238a.938.938,0,0,0-.325.71v7.614a.938.938,0,0,0,.938.938h1.034a.938.938,0,0,1,0,1.875H56.313A2.813,2.813,0,0,1,53.5,34.563V26.948a2.813,2.813,0,0,1,.976-2.13l6.563-5.66a2.812,2.812,0,0,1,3.674,0l6.563,5.66a2.813,2.813,0,0,1,.976,2.13v7.614a2.813,2.813,0,0,1-2.812,2.813H68.224a.938.938,0,0,1,0-1.875h1.213a.938.938,0,0,0,.938-.937V26.948a.938.938,0,0,0-.325-.71Z"
                fill="#24699e"
                fill-rule="evenodd" id="Vector" />
            <path d="M64.563,35.5V31.281a1.781,1.781,0,0,0-3.562,0V35.5Zm-1.781-7.875a3.656,3.656,0,0,0-3.656,3.656v5.156a.938.938,0,0,0,.938.938H65.5a.938.938,0,0,0,.938-.937V31.281A3.656,3.656,0,0,0,62.781,27.625Z"
                fill="#f7bc38"
                fill-rule="evenodd" id="Vector_2" />
        </g>
    </g>
</svg>
