<svg height="24" viewBox="0 0 19.2 24" width="19.2" xmlns="http://www.w3.org/2000/svg">
    <g data-name="Group 15026" id="Group_15026" transform="translate(-334.733 -70)">
        <path d="M21.188,10.987A6.005,6.005,0,0,1,13.72,4H13.6a7.72,7.72,0,0,0-7.584,6.953L5.6,14.606a4.58,4.58,0,0,1-1.055,2.45A2.265,2.265,0,0,0,6.2,20.8H21a2.265,2.265,0,0,0,1.65-3.744,4.58,4.58,0,0,1-1.055-2.45Zm-4.022,12.3a3.905,3.905,0,0,1-7.133,0A.473.473,0,0,1,10,23.108a.508.508,0,0,1,.508-.508h6.184a.508.508,0,0,1,.508.508A.472.472,0,0,1,17.166,23.286Z"
            fill="#24699e"
            fill-rule="evenodd" id="notification-bell" transform="translate(330.733 68.4)" />
        <circle cx="3.488" cy="3.488" data-name="Ellipse 76" fill="#f7bc38" id="Ellipse_76"
            r="3.488" transform="translate(346.958 70)" />
    </g>
</svg>
