<svg xmlns="http://www.w3.org/2000/svg" xmlns:xlink="http://www.w3.org/1999/xlink" width="35" height="35" viewBox="0 0 35 35">
  <defs>
    <linearGradient id="linear-gradient" x1="0.021" y1="0.316" x2="1.008" y2="0.695" gradientUnits="objectBoundingBox">
      <stop offset="0" stop-color="#24699e"/>
      <stop offset="0.86" stop-color="#c5e5d7"/>
    </linearGradient>
    <linearGradient id="linear-gradient-2" x1="0.35" y1="0.653" x2="1.039" y2="0.008" gradientUnits="objectBoundingBox">
      <stop offset="0" stop-color="#f6bb35"/>
      <stop offset="0.86" stop-color="#f6bb35"/>
    </linearGradient>
    <linearGradient id="linear-gradient-3" y1="0.5" x2="1" y2="0.5" gradientUnits="objectBoundingBox">
      <stop offset="0" stop-color="#f6bb35"/>
      <stop offset="1" stop-color="#fff2df"/>
    </linearGradient>
    <linearGradient id="linear-gradient-4" x1="0" y1="0.5" x2="1" y2="0.5" xlink:href="#linear-gradient"/>
  </defs>
  <g id="Group_15314" data-name="Group 15314" transform="translate(-40 -186)">
    <circle id="Ellipse_79" data-name="Ellipse 79" cx="17.5" cy="17.5" r="17.5" transform="translate(40 186)" fill="#e9eff3"/>
    <g id="Vector_Smart_Object1" data-name="Vector Smart Object1" transform="translate(45.335 193.567)">
      <path id="Path_22404" data-name="Path 22404" d="M44.178,190.407H36.15l1.419-3.259a3.116,3.116,0,0,1,2.631-1.864,44.2,44.2,0,0,0,9.019-.5q.252-.047.5-.1l-1.232,2.876a4.687,4.687,0,0,1-4.31,2.842Z" transform="translate(-33.381 -170.543)" fill="url(#linear-gradient)"/>
      <path id="Path_22405" data-name="Path 22405" d="M104.753,91.529h-3.5c1.581-1.35,3.693-7.608,5.767-11.672a3.909,3.909,0,0,1,3.472-2.2l3.157-.044-5.229,11.457A4.219,4.219,0,0,1,104.753,91.529Z" transform="translate(-93.494 -71.665)" fill="#24699e"/>
      <path id="Path_22406" data-name="Path 22406" d="M51.218,13.821l-3.468.1c1.581-1.35,3.693-7.608,5.767-11.672a3.908,3.908,0,0,1,3.471-2.2L60.145,0,54.813,11.522a3.961,3.961,0,0,1-3.6,2.3Z" transform="translate(-44.092)" fill="url(#linear-gradient-2)"/>
      <path id="Path_22407" data-name="Path 22407" d="M6.726,112.787H0l1.419-3.259a3.116,3.116,0,0,1,2.631-1.864,32.537,32.537,0,0,0,7.717-.5q.252-.047.5-.1l-1.232,2.876a4.687,4.687,0,0,1-4.31,2.842Z" transform="translate(0 -98.868)" fill="url(#linear-gradient-3)"/>
      <path id="Path_22408" data-name="Path 22408" d="M163.031,73.152h6.726l-1.419,3.259a3.273,3.273,0,0,1-1.056,1.3,3.35,3.35,0,0,1-1.576.565c-2.843.37-4.918-.005-7.717.5-.228.041-.409.078-.5.1l1.232-2.876a4.687,4.687,0,0,1,4.31-2.842Z" transform="translate(-145.426 -67.547)" fill="url(#linear-gradient-4)"/>
    </g>
  </g>
</svg>
