<svg height="16.954" viewBox="0 0 19.126 16.954" width="19.126" xmlns="http://www.w3.org/2000/svg">
    <g data-name="message 1" id="message_1" transform="translate(-220.812 -19.563)">
        <path d="M226.625,23.781a.938.938,0,0,0,0,1.875h7.687a.938.938,0,1,0,0-1.875Z" fill="#666e7a"
            id="Vector_5" />
        <path d="M226.625,27.25a.938.938,0,0,0,0,1.875h5.25a.938.938,0,0,0,0-1.875Z" fill="#666e7a"
            id="Vector_6" />
        <path d="M225.5,19.563a4.688,4.688,0,0,0-4.688,4.688V29.5a3.938,3.938,0,0,0,3.563,3.92v1.218a1.875,1.875,0,0,0,3.117,1.4l2.873-2.6h4.885a4.688,4.688,0,0,0,4.688-4.687v-4.5a4.688,4.688,0,0,0-4.688-4.687Zm3.864,12.249-2.241,2.055-.873.772V32.5a.938.938,0,0,0-.938-.937h-.562a2.062,2.062,0,0,1-2.062-2.062V24.25a2.812,2.812,0,0,1,2.812-2.812h9.75a2.812,2.812,0,0,1,2.812,2.813v4.5a2.812,2.812,0,0,1-2.812,2.813H230A.946.946,0,0,0,229.364,31.811Z"
            fill="#666e7a"
            fill-rule="evenodd" id="Vector_7" />
    </g>
</svg>
