<svg height="20.004" viewBox="0 0 20 20.004" width="20" xmlns="http://www.w3.org/2000/svg">
    <path d="M4.167,3.334A.834.834,0,0,1,5,2.5H6.668V.833a.833.833,0,0,1,1.667,0V2.5H10a.833.833,0,1,1,0,1.667H8.335V5.834a.833.833,0,0,1-1.667,0V4.167H5A.834.834,0,0,1,4.167,3.334Zm15.2,7.514-5.672,6.365A8.342,8.342,0,0,1,7.472,20H3.334A3.337,3.337,0,0,1,0,16.67V12.5A3.337,3.337,0,0,1,3.334,9.168h7.383a2.62,2.62,0,0,1,2.241,1.265l2.68-2.946a2.509,2.509,0,0,1,3.546-.166,2.518,2.518,0,0,1,.183,3.525ZM18.062,8.555a.868.868,0,0,0-.607-.218.837.837,0,0,0-.583.274l-3.689,4.054a2.634,2.634,0,0,1-2.1,1.716L6.785,15a.833.833,0,1,1-.236-1.649l4.3-.614a.952.952,0,0,0-.134-1.895H3.334A1.669,1.669,0,0,0,1.667,12.5v4.167a1.669,1.669,0,0,0,1.667,1.667H7.472a6.674,6.674,0,0,0,4.978-2.232L18.122,9.74a.847.847,0,0,0-.061-1.184Z"
        fill="#666e7a"
        id="hand-holding-medical" />
</svg>
