<svg xmlns="http://www.w3.org/2000/svg" width="20" height="20.254" viewBox="0 0 20 20.254">
  <g id="Group_15293" data-name="Group 15293" transform="translate(-303.436 -737.75)">
    <path id="hand-holding-medical" d="M19.367,10.848l-5.672,6.365A8.342,8.342,0,0,1,7.472,20H3.334A3.337,3.337,0,0,1,0,16.67V12.5A3.337,3.337,0,0,1,3.334,9.168h7.383a2.62,2.62,0,0,1,2.241,1.265l2.68-2.946a2.509,2.509,0,0,1,3.546-.166,2.518,2.518,0,0,1,.183,3.525ZM18.062,8.555a.868.868,0,0,0-.607-.218.837.837,0,0,0-.583.274l-3.689,4.054a2.634,2.634,0,0,1-2.1,1.716L6.785,15a.833.833,0,1,1-.236-1.649l4.3-.614a.952.952,0,0,0-.134-1.895H3.334A1.669,1.669,0,0,0,1.667,12.5v4.167a1.669,1.669,0,0,0,1.667,1.667H7.472a6.674,6.674,0,0,0,4.978-2.232L18.122,9.74a.847.847,0,0,0-.061-1.184Z" transform="translate(303.436 738)" fill="#24699e"/>
    <g id="Group_15292" data-name="Group 15292" transform="translate(79)">
      <path id="Path_22568" data-name="Path 22568" d="M0,0V6" transform="translate(231.5 738.5)" fill="none" stroke="#f7bc38" stroke-linecap="round" stroke-width="1.5"/>
      <path id="Path_22569" data-name="Path 22569" d="M0,0V6" transform="translate(234.5 741.5) rotate(90)" fill="none" stroke="#f7bc38" stroke-linecap="round" stroke-width="1.5"/>
    </g>
  </g>
</svg>
