<svg data-name="cancel (2)" height="59.851" id="cancel_2_" viewBox="0 0 59.851 59.851"
    width="59.851" xmlns="http://www.w3.org/2000/svg">
    <circle cx="29.925" cy="29.925" data-name="Ellipse 82" fill="#f15249" id="Ellipse_82"
        r="29.925" transform="translate(0 0)" />
    <path d="M147.2,173.961,163.343,190.1A29.771,29.771,0,0,0,189.4,164.237L173.161,148Z" data-name="Path 22573"
        fill="#d2352c"
        id="Path_22573" transform="translate(-129.83 -130.536)" />
    <path d="M154.512,146.254a3.534,3.534,0,0,1,0,4.909l-2.643,2.643a3.534,3.534,0,0,1-4.909,0l-20.768-20.768a3.534,3.534,0,0,1,0-4.909l2.738-2.738a3.534,3.534,0,0,1,4.909,0Z" data-name="Path 22574"
        fill="#fff"
        id="Path_22574" transform="translate(-110.426 -109.721)" />
    <path d="M223.647,216,216,223.647,227.045,234.6a3.534,3.534,0,0,0,4.909,0l2.738-2.738a3.534,3.534,0,0,0,0-4.909Z" data-name="Path 22575"
        fill="#d6d6d6"
        id="Path_22575" transform="translate(-190.512 -190.512)" />
    <path d="M146.96,126.191a3.534,3.534,0,0,1,4.909,0l2.738,2.738a3.534,3.534,0,0,1,0,4.909l-20.863,20.674a3.534,3.534,0,0,1-4.909,0l-2.643-2.643a3.534,3.534,0,0,1,0-4.909Z" data-name="Path 22576"
        fill="#fff"
        id="Path_22576" transform="translate(-110.426 -110.426)" />
</svg>
