<svg id="cancel_2_" data-name="cancel (2)" xmlns="http://www.w3.org/2000/svg" width="59.851" height="59.851" viewBox="0 0 59.851 59.851">
  <circle id="Ellipse_82" data-name="Ellipse 82" cx="29.925" cy="29.925" r="29.925" transform="translate(0 0)" fill="#f15249"/>
  <path id="Path_22573" data-name="Path 22573" d="M147.2,173.961,163.343,190.1A29.771,29.771,0,0,0,189.4,164.237L173.161,148Z" transform="translate(-129.83 -130.536)" fill="#d2352c"/>
  <path id="Path_22574" data-name="Path 22574" d="M154.512,146.254a3.534,3.534,0,0,1,0,4.909l-2.643,2.643a3.534,3.534,0,0,1-4.909,0l-20.768-20.768a3.534,3.534,0,0,1,0-4.909l2.738-2.738a3.534,3.534,0,0,1,4.909,0Z" transform="translate(-110.426 -109.721)" fill="#fff"/>
  <path id="Path_22575" data-name="Path 22575" d="M223.647,216,216,223.647,227.045,234.6a3.534,3.534,0,0,0,4.909,0l2.738-2.738a3.534,3.534,0,0,0,0-4.909Z" transform="translate(-190.512 -190.512)" fill="#d6d6d6"/>
  <path id="Path_22576" data-name="Path 22576" d="M146.96,126.191a3.534,3.534,0,0,1,4.909,0l2.738,2.738a3.534,3.534,0,0,1,0,4.909l-20.863,20.674a3.534,3.534,0,0,1-4.909,0l-2.643-2.643a3.534,3.534,0,0,1,0-4.909Z" transform="translate(-110.426 -110.426)" fill="#fff"/>
</svg>
