<svg xmlns="http://www.w3.org/2000/svg" xmlns:xlink="http://www.w3.org/1999/xlink" width="101.031" height="29.152" viewBox="0 0 101.031 29.152">
  <defs>
    <clipPath id="clip-path">
      <path id="Path_22479" data-name="Path 22479" d="M418.9,246.756a2.384,2.384,0,0,1-.051-.522,3.9,3.9,0,0,1,3.756-3.638,3.622,3.622,0,0,1,1.7.4,3.075,3.075,0,0,1,1.179,1.027L419,247.194C418.968,247.042,418.935,246.908,418.9,246.756Zm-1.33-4.53a6.411,6.411,0,0,0-1.819,4.581,5.959,5.959,0,0,0,1.987,4.581,6.7,6.7,0,0,0,4.749,1.836,6.875,6.875,0,0,0,4.345-1.465,8.946,8.946,0,0,0,1.4-1.448l-2.324-1.364a4.717,4.717,0,0,1-.808.876,3.473,3.473,0,0,1-2.257.859,3.354,3.354,0,0,1-2.021-.707,6.5,6.5,0,0,1-.758-.707l8.959-4.412a7.185,7.185,0,0,0-2.56-3.419,6.9,6.9,0,0,0-8.892.792Zm-15.073-.472v11.081h3.4V240.121Zm.387-5.625a1.908,1.908,0,0,0-.539,1.364,1.7,1.7,0,0,0,.573,1.314,2.028,2.028,0,0,0,1.431.522,1.771,1.771,0,0,0,1.364-.589,1.906,1.906,0,0,0,.539-1.314,1.661,1.661,0,0,0-.589-1.314,2.007,2.007,0,0,0-1.381-.539A1.826,1.826,0,0,0,402.885,236.129ZM389.8,235.3v17.531h10.29l.859-2.863h-7.41V235.3Zm23.476-.4h-.017a3.794,3.794,0,0,0-2.913,1.128,4.217,4.217,0,0,0-1.078,3v1.566h-1.213l-.674,2.61h1.886v9.616h3.4V243.2h1.869l.674-2.61H412.67V239.43c0-1.229.421-1.852,1.246-1.852a2.1,2.1,0,0,1,.926.236,1.142,1.142,0,0,1,.152.1l.724-2.594c-.3-.1-.573-.168-.775-.219A7.986,7.986,0,0,0,413.276,234.9Z" transform="translate(-389.8 -234.9)"/>
    </clipPath>
    <linearGradient id="linear-gradient" x1="0.247" y1="0.5" x2="1.247" y2="0.5" gradientUnits="objectBoundingBox">
      <stop offset="0" stop-color="#d81c52"/>
      <stop offset="1" stop-color="#291f75"/>
    </linearGradient>
  </defs>
  <g id="sbi-life-insurance-vector-logo-2022" transform="translate(-22.784 -234.9)">
    <path id="Path_22476" data-name="Path 22476" d="M158.93,376.568h-.505a.191.191,0,0,1-.135-.051.3.3,0,0,1-.084-.118l-.455-1.162h-2.172l-.455,1.162a.248.248,0,0,1-.084.1.191.191,0,0,1-.135.051H154.4l1.937-4.833h.657Zm-3.166-1.8h1.8l-.758-1.97a3.559,3.559,0,0,1-.152-.455c-.017.084-.051.185-.067.253a1.4,1.4,0,0,1-.067.2Zm4.16,2.947v-4.564h.354a.162.162,0,0,1,.168.118l.051.4a1.686,1.686,0,0,1,.505-.421,1.34,1.34,0,0,1,.64-.168,1.15,1.15,0,0,1,.539.118.969.969,0,0,1,.4.337,1.407,1.407,0,0,1,.253.556,2.611,2.611,0,0,1,.084.758,2.394,2.394,0,0,1-.1.707,1.731,1.731,0,0,1-.286.556,1.285,1.285,0,0,1-.472.37,1.473,1.473,0,0,1-.623.135,1.283,1.283,0,0,1-.539-.1.974.974,0,0,1-.387-.3v1.516h-.589Zm1.516-4.143a1.045,1.045,0,0,0-.522.135,1.256,1.256,0,0,0-.4.387v1.65a1.078,1.078,0,0,0,.37.32.926.926,0,0,0,.438.084.858.858,0,0,0,.724-.337,1.609,1.609,0,0,0,.253-.977,2.779,2.779,0,0,0-.051-.573,1.171,1.171,0,0,0-.168-.387.56.56,0,0,0-.269-.219A.706.706,0,0,0,161.439,373.57Zm3.267,3v-2.509a2.041,2.041,0,0,1,.421-.354,1.029,1.029,0,0,1,.505-.135.642.642,0,0,1,.539.219.9.9,0,0,1,.185.606v2.172h.606V374.4a1.706,1.706,0,0,0-.067-.522,1.04,1.04,0,0,0-.219-.4.988.988,0,0,0-.842-.354,1.331,1.331,0,0,0-.64.152,1.908,1.908,0,0,0-.505.4l-.051-.37a.151.151,0,0,0-.168-.118H164.1V376.6h.606Zm4.951-3.469a1.64,1.64,0,0,1,.573.1,1.346,1.346,0,0,1,.455.3,1.468,1.468,0,0,1,.4,1.111.393.393,0,0,1-.034.185c-.017.034-.051.051-.118.051h-2.274a1.755,1.755,0,0,0,.084.556,1.321,1.321,0,0,0,.219.4.939.939,0,0,0,.337.236,1.193,1.193,0,0,0,.438.084,1.271,1.271,0,0,0,.387-.051,1.456,1.456,0,0,0,.286-.118,1.068,1.068,0,0,0,.2-.118.269.269,0,0,1,.135-.051.153.153,0,0,1,.118.051l.168.219a1.231,1.231,0,0,1-.269.236,2.1,2.1,0,0,1-.337.168,2.383,2.383,0,0,1-.37.1,2.753,2.753,0,0,1-.371.034,1.688,1.688,0,0,1-.657-.118,1.592,1.592,0,0,1-.522-.354,1.476,1.476,0,0,1-.337-.573,2.2,2.2,0,0,1-.118-.775,2.251,2.251,0,0,1,.1-.674,1.58,1.58,0,0,1,.32-.539,1.368,1.368,0,0,1,.505-.354,1.772,1.772,0,0,1,.674-.118m.017.438a.942.942,0,0,0-.69.253,1.139,1.139,0,0,0-.3.69h1.852a1.435,1.435,0,0,0-.051-.387.883.883,0,0,0-.168-.3.811.811,0,0,0-.269-.2A1.314,1.314,0,0,0,169.675,373.537Zm5.069-1.937h-.606v4.951h.606Zm2.324.472a.6.6,0,0,1-.034.168.262.262,0,0,1-.1.135.367.367,0,0,1-.135.084.5.5,0,0,1-.168.034.6.6,0,0,1-.168-.034.367.367,0,0,1-.135-.084.936.936,0,0,1-.1-.135.5.5,0,0,1-.034-.168.6.6,0,0,1,.034-.168.262.262,0,0,1,.1-.135.93.93,0,0,1,.135-.1.5.5,0,0,1,.168-.034.6.6,0,0,1,.168.034.262.262,0,0,1,.135.1.93.93,0,0,1,.1.135.742.742,0,0,1,.034.168m-.135,4.48h-.606v-3.419h.606Zm4.429-3.4h-.472a.239.239,0,0,0-.1.034.168.168,0,0,0-.067.084l-.893,2.139-.051.152-.051.152c-.017-.051-.017-.1-.034-.152l-.051-.152-.909-2.156a.168.168,0,0,0-.067-.084.142.142,0,0,0-.118-.034h-.522l1.415,3.217-.623,1.347h.438a.261.261,0,0,0,.135-.034.352.352,0,0,0,.067-.1Zm2.273-.051a1.64,1.64,0,0,1,.573.1,1.346,1.346,0,0,1,.455.3,1.468,1.468,0,0,1,.4,1.111.393.393,0,0,1-.034.185c-.017.034-.051.051-.118.051h-2.29a1.754,1.754,0,0,0,.084.556,1.32,1.32,0,0,0,.219.4.939.939,0,0,0,.337.236,1.193,1.193,0,0,0,.438.084,1.271,1.271,0,0,0,.387-.051,1.456,1.456,0,0,0,.286-.118,1.067,1.067,0,0,0,.2-.118.269.269,0,0,1,.135-.051.153.153,0,0,1,.118.051l.168.219a1.23,1.23,0,0,1-.269.236,2.1,2.1,0,0,1-.337.168,2.382,2.382,0,0,1-.37.1,2.754,2.754,0,0,1-.37.034,1.688,1.688,0,0,1-.657-.118,1.592,1.592,0,0,1-.522-.354,1.477,1.477,0,0,1-.337-.573,2.2,2.2,0,0,1-.118-.775,1.831,1.831,0,0,1,.118-.674,1.58,1.58,0,0,1,.32-.539,1.368,1.368,0,0,1,.505-.354,1.716,1.716,0,0,1,.674-.118m0,.438a.942.942,0,0,0-.69.253,1.139,1.139,0,0,0-.3.69h1.853a1.436,1.436,0,0,0-.051-.387.883.883,0,0,0-.168-.3.81.81,0,0,0-.269-.2A1.158,1.158,0,0,0,183.636,373.537Zm2.442,2.644a.5.5,0,0,0,.034.168.353.353,0,0,0,.219.219.438.438,0,0,0,.337,0,.353.353,0,0,0,.219-.219.5.5,0,0,0,.034-.168.6.6,0,0,0-.034-.168.353.353,0,0,0-.219-.219.5.5,0,0,0-.168-.034.6.6,0,0,0-.168.034.353.353,0,0,0-.219.219.741.741,0,0,0-.034.168m7.915.387h-.505a.191.191,0,0,1-.135-.051.3.3,0,0,1-.084-.118l-.455-1.162h-2.172l-.455,1.162a.248.248,0,0,1-.084.1.191.191,0,0,1-.135.051h-.505l1.937-4.833h.657Zm-3.166-1.8h1.8l-.758-1.97a3.561,3.561,0,0,1-.152-.455,1.908,1.908,0,0,0-.067.253,1.4,1.4,0,0,1-.067.2Zm4.143,2.947v-4.564h.354a.162.162,0,0,1,.168.118l.051.4a1.686,1.686,0,0,1,.505-.421,1.356,1.356,0,0,1,.657-.168,1.15,1.15,0,0,1,.539.118.876.876,0,0,1,.4.337,1.407,1.407,0,0,1,.253.556,2.609,2.609,0,0,1,.084.758,2.393,2.393,0,0,1-.1.707,1.731,1.731,0,0,1-.286.556,1.379,1.379,0,0,1-.455.37,1.472,1.472,0,0,1-.623.135,1.283,1.283,0,0,1-.539-.1.974.974,0,0,1-.387-.3v1.516h-.623Zm1.533-4.143a1.045,1.045,0,0,0-.522.135,1.256,1.256,0,0,0-.4.387v1.65a.946.946,0,0,0,.37.32.926.926,0,0,0,.438.084.858.858,0,0,0,.724-.337,1.609,1.609,0,0,0,.253-.977,2.778,2.778,0,0,0-.051-.573,1.171,1.171,0,0,0-.168-.387.56.56,0,0,0-.269-.219A.706.706,0,0,0,196.5,373.57Zm3.25,3v-2.509a2.041,2.041,0,0,1,.421-.354,1.029,1.029,0,0,1,.505-.135.642.642,0,0,1,.539.219.9.9,0,0,1,.185.606v2.172h.606V374.4a1.706,1.706,0,0,0-.067-.522,1.04,1.04,0,0,0-.219-.4.988.988,0,0,0-.842-.354,1.331,1.331,0,0,0-.64.152,1.908,1.908,0,0,0-.505.4l-.051-.37a.151.151,0,0,0-.168-.118h-.354V376.6h.589Zm5-3.469a1.715,1.715,0,0,1,.674.118,1.368,1.368,0,0,1,.505.354,1.505,1.505,0,0,1,.32.556,2.415,2.415,0,0,1,.118.724,1.982,1.982,0,0,1-.118.724,1.506,1.506,0,0,1-.32.556,1.369,1.369,0,0,1-.505.354,1.984,1.984,0,0,1-1.347,0,1.369,1.369,0,0,1-.505-.354,1.506,1.506,0,0,1-.32-.556,2.415,2.415,0,0,1-.118-.724,1.982,1.982,0,0,1,.118-.724,1.782,1.782,0,0,1,.32-.556,1.522,1.522,0,0,1,.505-.354,1.715,1.715,0,0,1,.674-.118m0,3.048a.9.9,0,0,0,.758-.337,1.887,1.887,0,0,0,0-1.886.9.9,0,0,0-.758-.337,1.127,1.127,0,0,0-.438.084.926.926,0,0,0-.32.253,1.109,1.109,0,0,0-.185.4,2.617,2.617,0,0,0-.067.539,1.747,1.747,0,0,0,.067.539.994.994,0,0,0,.185.4.969.969,0,0,0,.32.253A1.126,1.126,0,0,0,204.754,376.147Zm4.614-4.547v4.968h.606v-1.634h.168a.374.374,0,0,1,.152.017.286.286,0,0,1,.1.1l1.128,1.4a.445.445,0,0,0,.1.084.312.312,0,0,0,.118.034h.539l-1.33-1.684c-.034-.051-.067-.084-.084-.118a.731.731,0,0,0-.118-.1.725.725,0,0,0,.185-.185l1.263-1.33h-.539a.317.317,0,0,0-.135.034.445.445,0,0,0-.1.084l-1.078,1.162a.446.446,0,0,1-.1.084.25.25,0,0,1-.118.017h-.152v-2.913h-.606Zm5.12,1.5a1.64,1.64,0,0,1,.573.1,1.346,1.346,0,0,1,.455.3,1.468,1.468,0,0,1,.4,1.111.393.393,0,0,1-.034.185c-.017.034-.051.051-.118.051h-2.274a1.754,1.754,0,0,0,.084.556,1.321,1.321,0,0,0,.219.4.939.939,0,0,0,.337.236,1.192,1.192,0,0,0,.438.084,1.271,1.271,0,0,0,.387-.051,1.457,1.457,0,0,0,.286-.118,1.068,1.068,0,0,0,.2-.118.269.269,0,0,1,.135-.051.153.153,0,0,1,.118.051l.168.219a1.23,1.23,0,0,1-.269.236,2.1,2.1,0,0,1-.337.168,2.383,2.383,0,0,1-.371.1,2.753,2.753,0,0,1-.37.034,1.687,1.687,0,0,1-.657-.118,1.592,1.592,0,0,1-.522-.354,1.477,1.477,0,0,1-.337-.573,2.2,2.2,0,0,1-.118-.775,1.832,1.832,0,0,1,.118-.674,1.58,1.58,0,0,1,.32-.539,1.368,1.368,0,0,1,.505-.354,1.632,1.632,0,0,1,.657-.118m.017.438a.942.942,0,0,0-.69.253,1.139,1.139,0,0,0-.3.69h1.852a1.436,1.436,0,0,0-.05-.387.883.883,0,0,0-.168-.3.811.811,0,0,0-.269-.2A1.314,1.314,0,0,0,214.5,373.537Zm5.069-1.937h-.606v4.951h.606Zm2.324.472a.6.6,0,0,1-.034.168.262.262,0,0,1-.1.135.367.367,0,0,1-.135.084.5.5,0,0,1-.168.034.6.6,0,0,1-.168-.034.367.367,0,0,1-.135-.084.936.936,0,0,1-.1-.135.5.5,0,0,1-.034-.168.6.6,0,0,1,.034-.168.262.262,0,0,1,.1-.135.929.929,0,0,1,.135-.1.438.438,0,0,1,.337,0,.262.262,0,0,1,.135.1.93.93,0,0,1,.1.135.741.741,0,0,1,.034.168m-.135,4.48h-.606v-3.419h.606Zm4.429-3.4h-.472a.239.239,0,0,0-.1.034.168.168,0,0,0-.067.084l-.893,2.139-.051.152-.051.152c-.017-.051-.017-.1-.034-.152l-.051-.152-.909-2.156a.168.168,0,0,0-.067-.084.142.142,0,0,0-.118-.034h-.522l1.415,3.217-.623,1.347h.438a.218.218,0,0,0,.135-.034.354.354,0,0,0,.067-.1Zm2.273-.051a1.64,1.64,0,0,1,.573.1,1.346,1.346,0,0,1,.455.3,1.468,1.468,0,0,1,.4,1.111.393.393,0,0,1-.034.185c-.017.034-.051.051-.118.051h-2.274a1.755,1.755,0,0,0,.084.556,1.32,1.32,0,0,0,.219.4.938.938,0,0,0,.337.236,1.192,1.192,0,0,0,.438.084,1.271,1.271,0,0,0,.387-.051,1.456,1.456,0,0,0,.286-.118,1.068,1.068,0,0,0,.2-.118.269.269,0,0,1,.135-.051.153.153,0,0,1,.118.051l.168.219a1.23,1.23,0,0,1-.269.236,2.1,2.1,0,0,1-.337.168,2.382,2.382,0,0,1-.37.1,2.755,2.755,0,0,1-.371.034,1.687,1.687,0,0,1-.657-.118,1.591,1.591,0,0,1-.522-.354,1.476,1.476,0,0,1-.337-.573,2.2,2.2,0,0,1-.118-.775,1.832,1.832,0,0,1,.118-.674,1.579,1.579,0,0,1,.32-.539,1.368,1.368,0,0,1,.505-.354,1.579,1.579,0,0,1,.657-.118m0,.438a.942.942,0,0,0-.69.253,1.139,1.139,0,0,0-.3.69h1.852a1.435,1.435,0,0,0-.051-.387.883.883,0,0,0-.168-.3.811.811,0,0,0-.269-.2A1.158,1.158,0,0,0,228.466,373.537Zm2.442,2.644a.5.5,0,0,0,.034.168.353.353,0,0,0,.219.219.5.5,0,0,0,.168.034.6.6,0,0,0,.168-.034.353.353,0,0,0,.219-.219.5.5,0,0,0,.034-.168.6.6,0,0,0-.034-.168.353.353,0,0,0-.219-.219.5.5,0,0,0-.168-.034.6.6,0,0,0-.168.034.353.353,0,0,0-.219.219.741.741,0,0,0-.034.168" transform="translate(-109.451 -113.679)"/>
    <path id="Path_22477" data-name="Path 22477" d="M32.588,250.935v-2.947a.377.377,0,0,1,.236-.387,2.53,2.53,0,0,0,1.33-2.9,2.545,2.545,0,1,0-3.621,2.88.408.408,0,0,1,.253.438v5.76c0,.4,0,.4-.4.354a8.655,8.655,0,0,1-6.568-4.682,8.867,8.867,0,1,1,9.229,4.665c-.472.084-.472.084-.472-.421v-2.762Z" transform="translate(0 -1.249)" fill="#00b4ee"/>
    <path id="Path_22478" data-name="Path 22478" d="M179.993,244.088a5.667,5.667,0,0,1,.623.4,4.347,4.347,0,0,1,1.751,4.177c-.236,2.425-1.92,4.025-4.682,4.564a10.633,10.633,0,0,1-1.937.185h-6.635c-.269,0-.354-.05-.354-.32q.025-8.463,0-16.942c0-.253.084-.32.354-.32,2.24.017,4.463-.017,6.7.017a6.752,6.752,0,0,1,4.092,1.2,4.424,4.424,0,0,1,.219,6.888c-.017.067-.067.1-.135.152m-7.191.556v5.17c0,.236.051.32.32.32.977-.017,1.97,0,2.947,0a2.064,2.064,0,0,0,2.257-1.987,2.012,2.012,0,0,0-2.055-2.156,11.393,11.393,0,0,0-1.314-.017c-.2,0-.253-.051-.253-.236q.025-1.389,0-2.779c0-.185.084-.236.269-.236.354,0,.69.017,1.044-.017a1.566,1.566,0,0,0,1.3-.623,1.935,1.935,0,0,0,.084-2.038,1.792,1.792,0,0,0-1.7-.859c-.859-.017-1.718,0-2.577,0-.253,0-.337.051-.337.3C172.8,241.191,172.8,242.909,172.8,244.644Zm-10.509,2.711a1.4,1.4,0,0,1-.337,2.509,3.344,3.344,0,0,1-1.28.2A6.66,6.66,0,0,1,156.5,248.3c-.2-.168-.286-.185-.455.034-.623.825-1.263,1.65-1.9,2.459-.118.152-.135.253.017.4a7.788,7.788,0,0,0,2.139,1.465,9.426,9.426,0,0,0,7.124.556,4.978,4.978,0,0,0,3.25-6.77,5.62,5.62,0,0,0-2.728-2.526c-1.111-.573-2.307-.943-3.452-1.432a5.55,5.55,0,0,1-1.314-.724,1.242,1.242,0,0,1,.168-2.172,2.79,2.79,0,0,1,1.684-.4,6.16,6.16,0,0,1,3.7,1.5c.2.152.269.2.4-.05.438-.808.926-1.617,1.381-2.425.3-.539.32-.556-.219-.943a8.86,8.86,0,0,0-5.339-1.667,7.3,7.3,0,0,0-4.682,1.516,4.649,4.649,0,0,0-1.4,5.608,6.032,6.032,0,0,0,2.9,2.543c.926.472,1.92.808,2.863,1.213a10.241,10.241,0,0,1,1.65.876m26.187-2.678v-8.5c0-.253-.067-.32-.337-.32-1.2.017-2.408.017-3.6,0-.236,0-.286.067-.286.269v17.026c0,.2.051.269.286.269,1.2-.017,2.391-.017,3.57,0,.3,0,.37-.067.37-.354v-8.387" transform="translate(-109.159 -0.582)" fill="#291f75"/>
    <g id="Group_14853" data-name="Group 14853" transform="translate(84.593 234.9)">
      <g id="Group_14852" data-name="Group 14852" transform="translate(0 0)" clip-path="url(#clip-path)">
        <rect id="Rectangle_8723" data-name="Rectangle 8723" width="39.256" height="18.34" fill="url(#linear-gradient)"/>
      </g>
    </g>
  </g>
</svg>
