<svg height="60.319" viewBox="0 0 60.319 60.319" width="60.319" xmlns="http://www.w3.org/2000/svg">
    <g id="SUCCESS" transform="translate(0 0)">
        <path d="M30.159,0A30.159,30.159,0,1,0,60.319,30.159,30.157,30.157,0,0,0,30.159,0Z" data-name="Path 22570"
            fill="#2ad352"
            id="Path_22570" transform="translate(0 0)" />
        <path d="M0,30.159A30.026,30.026,0,0,0,3.592,44.441,32.853,32.853,0,0,0,44.325,3.525,30.173,30.173,0,0,0,0,30.159Z" data-name="Path 22571"
            fill="#74da7f"
            id="Path_22571" transform="translate(0 0)" />
        <path d="M125.566,146.3l-18.127,19.037a5.32,5.32,0,0,1-3.826,1.649h-.024a5.314,5.314,0,0,1-3.817-1.615l-9.619-9.908a5.318,5.318,0,1,1,7.632-7.407l5.766,5.94,14.313-15.03a5.318,5.318,0,1,1,7.7,7.334Z" data-name="Path 22572"
            fill="#fff"
            id="Path_22572" transform="translate(-78.207 -121.138)" />
    </g>
</svg>
