<svg xmlns="http://www.w3.org/2000/svg" width="60.319" height="60.319" viewBox="0 0 60.319 60.319">
  <g id="SUCCESS" transform="translate(0 0)">
    <path id="Path_22570" data-name="Path 22570" d="M30.159,0A30.159,30.159,0,1,0,60.319,30.159,30.157,30.157,0,0,0,30.159,0Z" transform="translate(0 0)" fill="#2ad352"/>
    <path id="Path_22571" data-name="Path 22571" d="M0,30.159A30.026,30.026,0,0,0,3.592,44.441,32.853,32.853,0,0,0,44.325,3.525,30.173,30.173,0,0,0,0,30.159Z" transform="translate(0 0)" fill="#74da7f"/>
    <path id="Path_22572" data-name="Path 22572" d="M125.566,146.3l-18.127,19.037a5.32,5.32,0,0,1-3.826,1.649h-.024a5.314,5.314,0,0,1-3.817-1.615l-9.619-9.908a5.318,5.318,0,1,1,7.632-7.407l5.766,5.94,14.313-15.03a5.318,5.318,0,1,1,7.7,7.334Z" transform="translate(-78.207 -121.138)" fill="#fff"/>
  </g>
</svg>
