<svg height="19.125" viewBox="0 0 18.75 19.125" width="18.75" xmlns="http://www.w3.org/2000/svg">
    <g data-name="profile 1" id="profile_1" transform="translate(-304.75 -18.438)">
        <path d="M318.812,23.219a4.688,4.688,0,1,1-4.687-4.781A4.735,4.735,0,0,1,318.812,23.219Zm-1.874,0a2.814,2.814,0,1,1-2.813-2.906A2.861,2.861,0,0,1,316.938,23.219Z"
            fill="#666e7a"
            fill-rule="evenodd" id="Vector_8" />
        <path d="M309.438,29.125a4.688,4.688,0,0,0-4.688,4.688v2.813a.938.938,0,1,0,1.875,0V33.813A2.812,2.812,0,0,1,309.438,31h9.374a2.812,2.812,0,0,1,2.813,2.813v2.813a.938.938,0,1,0,1.875,0V33.813a4.688,4.688,0,0,0-4.688-4.687Z"
            fill="#666e7a"
            id="Vector_9" />
        <path d="M311.688,33.063a.937.937,0,0,1,.937-.937h2.813a.938.938,0,0,1,0,1.875h-2.813A.937.937,0,0,1,311.688,33.063Z"
            fill="#666e7a"
            fill-rule="evenodd" id="Vector_10" />
    </g>
</svg>
