<svg height="262.189" viewBox="0 0 142 262.189" width="142" xmlns="http://www.w3.org/2000/svg">
    <g data-name="Group 14252" id="Group_14252" transform="translate(256.711 -449)">
        <path d="M265.125,267.338l-.1-.085a.368.368,0,0,0,.1.085" data-name="Path 20069"
            fill="#e9d6b8"
            id="Path_20069" transform="translate(-440.755 263.411)" />
        <path d="M282.163,245.662c-3.057-3.872-.815-8.151-2.853-11.819s-12.838-5.3-13.653-2.241.611,5.3.407,7.947c-.153,1.992-.536,2.025-.717,1.919l1.533,1.341.494,1.631h2.439a4.2,4.2,0,0,1-1.871,1.877l.975,3.217s4.151.333,5.909-1.426c.815-.815,2.063,3.687,2.651,6.061.162.65-2.141,2.935-2.141,2.935s6.012,14.235,15.589-5.736c0,0-5.706-1.834-8.762-5.705" data-name="Path 20070"
            fill="#e9d6b8"
            id="Path_20070" transform="translate(-440.977 289.281)" />
        <path d="M98.866,576.334c-.284-1.19-.471-2.38-.721-3.549-1.074-1.841-2.074-2.892-2.922-2.932-3.208-.145-4.327,4.107.39,31.945.123.726,1.012,9.6,2.134,15.665.744,4.019,1.964,6.282,1.981,5.943.813-17.01.157-42.775-.862-47.072" data-name="Path 20071"
            fill="#e2c59c"
            id="Path_20071" transform="translate(-320.904 53.277)" />
        <path d="M90.712,749.479c-2.481,3.695-5.668,5.976-6.6,5.2s2.963-6.882,5.79-10.266c2.177-2.607,3.314-3.223,4.247-2.453s-.959,3.816-3.437,7.515" data-name="Path 20072"
            fill="#194866"
            id="Path_20072" transform="translate(-315.025 -66.03)" />
        <path d="M95.84,724.487c-1.636,2.509-3.978,3.877-4.707,3.074s3.2-5.014,4.232-6.642c.91-1.433,2.022-2.587,1.616-5.23-.615-4-.493-7.293-.1-7.251,0,0,1.623-.318,1.638.849.043,3.131.641,8.8.47,9.286a29.92,29.92,0,0,1-3.151,5.913" data-name="Path 20073"
            fill="#e2c59c"
            id="Path_20073" transform="translate(-319.934 -42.936)" />
        <path d="M125.788,595.324c-.238-1.2-.38-2.4-.587-3.573-1-1.882-1.966-2.97-2.811-3.039-3.2-.266-5.748,10.553-.8,31.938.273,1.191,4.386,22.635,4.461,21.789,1.448-16.968.6-42.782-.258-47.114" data-name="Path 20074"
            fill="#e9d6b8"
            id="Path_20074" transform="translate(-339.218 40.183)" />
        <path d="M141.867,767.474c-.134,4.268-1.156,7.7-2.286,7.664s-1.932-3.524-1.8-7.793,1.154-7.7,2.284-7.664,1.934,3.524,1.8,7.793" data-name="Path 20075"
            fill="#194866"
            id="Path_20075" transform="translate(-352.381 -78.548)" />
        <path d="M140.834,744.529c.172,3.146-.971,5.905-2.095,5.8s-1.7-2.633-1.273-5.753c.537-3.948,1.2-5.5.5-7.9-.72-2.48-.347-4.669.015-4.921s1.6.932,1.5,2.1a11.188,11.188,0,0,0,.348,3.773,30.127,30.127,0,0,1,1,6.906" data-name="Path 20076"
            fill="#e9d6b8"
            id="Path_20076" transform="translate(-352.073 -59.129)" />
        <path d="M65.964,411.768s-2.207,2.647-.662,12.8c1.081,7.108,3.545,20.98,5.351,27.253a29.178,29.178,0,0,0,2.152,5.958c1.765,2.428,4.855,6.069,5.3,1.656s.22-25.82,2.427-30.232,8.385-16.992-14.565-17.433" data-name="Path 20077"
            fill="#123d58"
            id="Path_20077" transform="translate(-301.678 163.055)" />
        <path d="M83.443,536.951a43.421,43.421,0,0,1,.551,8.164s5.075-1.655,8.5,1.325c.471.409.121-5.471-.221-6.841-.221-.883-.882-3.752-1.544-5.738s-4.194-7.062-4.414-8.606-3.751-6.179-4.634,3.31c-.209,2.24,1.545,6.841,1.766,8.386" data-name="Path 20078"
            fill="#123d58"
            id="Path_20078" transform="translate(-313.418 85.98)" />
        <path d="M117.552,421.6s3.752,6.841,4.414,11.255-.883,14.123-3.531,20.081.22,8.166.22,10.151-1.766,8.386-4.193,8.386-7.061-6.4-6.178-9.489-1.545-19.862-1.325-25.6,1.325-17.654,10.593-14.785" data-name="Path 20079"
            fill="#194866"
            id="Path_20079" transform="translate(-330.977 156.53)" />
        <path d="M119.029,546.986s2.649.221,2.869,10.151,0,18.537,0,18.537-8.827-1.766-8.606.221-1.545-12.579-2.428-16.992,1.325-8.828,2.428-11.475,4.854-1.545,5.737-.441" data-name="Path 20080"
            fill="#194866"
            id="Path_20080" transform="translate(-333.557 69.986)" />
        <path d="M142.433,231.982a29.487,29.487,0,0,0-8.616,7.918c-2.857,4.2-4.313,6.255-1.5,10.514s-3,13.754.6,10.917c4.2-3.3,4.69.5,7.861-.46,5.585-1.681,7.318-6.908,5.245-11.909s-2.32-5.246-1.02-8.372-1.08-9.523-2.568-8.608" data-name="Path 20081"
            fill="#163f59"
            id="Path_20081" transform="translate(-347.544 287.965)" />
        <path d="M118.442,277.9s1.383-.627,2.554-4.445,1.75-5.815,1.289-7.388,7.85.191,7.329,3.075-.131,3.392-1.728,6.17-.71,3.923.72,4.005-10.263-.224-10.165-1.417" data-name="Path 20082"
            fill="#e9d6b8"
            id="Path_20082" transform="translate(-338.96 264.64)" />
        <path d="M106.825,259.665s-1.284,6.583,2.329,8.539a22.649,22.649,0,0,0,3.261,1.475L97.7,283.612l-7.336-14.554s10.193-.353,10.48-4.658c.544-8.151,4.268-15.526,5.977-4.735" data-name="Path 20083"
            fill="#e9d6b8"
            id="Path_20083" transform="translate(-319.466 272.432)" />
        <path d="M139.706,246.269a8.733,8.733,0,0,1-4.1,1.656,9.194,9.194,0,0,0,9.84,4.67.811.811,0,0,0,.621-.5,1.461,1.461,0,0,0,.138-.961c-.066-.186-.273-.366-.213-.4l.56-.374c.1-.067.111-.393.111-.393a2.845,2.845,0,0,1-.32-.307c.52-.346.56-.633.574-.786s-.206-.368-.394-.545a1.12,1.12,0,0,1-.114-.822c.053-.178.579-.471.666-.644s.153-.506.08-.573-.351-.237-.883-.575a3.547,3.547,0,0,1-1.335-2.921c-.08-1.678-.479-1.569-.841-2.31-.928-1.9-1.529,3.68-4.385,5.789" data-name="Path 20084"
            fill="#e9d6b8"
            id="Path_20084" transform="translate(-350.878 282.272)" />
        <path d="M112.767,227.058c-.211-.818-8.715-2.634-13.162-.179a12.127,12.127,0,0,0-6.077,12.294c.581,5.068-8.9,10.909-4.4,10.009,5.24-1.047,3.959,2.562,7.22,3.144,5.741,1.026,9.652-2.854,10.063-8.251s.3-5.728,2.875-7.928,3.918-7.4,3.48-9.088" data-name="Path 20085"
            fill="#194866"
            id="Path_20085" transform="translate(-317.761 292.307)" />
        <path d="M91.409,299.314c-4.348,1.708-8.956,12.271-12.887,10.79-5.356-2.018-3.609-12.382-3.609-12.382s-3.438-.048-3.726.35c-2.445,3.377-5.085,10.17-4.308,14.672s0,14.9,0,14.9-3.378,3.006-5.642,10.809a41.869,41.869,0,0,0,28.655,6.122c-2.346-12.711-5.315-16-5.315-16S89.7,317.4,89.39,313.209s4.5-12.808,4.5-12.808Z" data-name="Path 20086"
            fill="#f7bc38"
            id="Path_20086" transform="translate(-299.235 242.253)" />
        <path d="M240.608,333.906l-17.972,16.7s-1.371,4.843-.49,5.877a9.092,9.092,0,0,0,3.338,1.868c.633.282,16.66-12.118,20.771-16.761s-5.648-7.681-5.648-7.681" data-name="Path 20087"
            fill="#e9d6b8"
            id="Path_20087" transform="translate(-410.772 217.125)" />
        <path d="M246.876,818.274l-.247,5.6h-4.554s-.252-.7-.637-.7c-.324,0-.744.7-1.186.7H228.669s-.207-1.037.044-1.4a4.243,4.243,0,0,1,1.4-.658c2.353-.731,9.085-3.01,10.255-5.491,1.423-3.018,6.508,1.946,6.508,1.946" data-name="Path 20088"
            fill="#1b5fb3"
            id="Path_20088" transform="translate(-415.451 -117.21)" />
        <path d="M228.635,839.382a3.619,3.619,0,0,0,.04,1.176h11.583c.442,0,.861-.7,1.186-.7.385,0,.637.7.637.7h4.554l.2-1.176Z" data-name="Path 20089"
            fill="#fff"
            id="Path_20089" transform="translate(-415.457 -133.895)" />
        <path d="M253.17,829.678c-.1.147-.363-.02-.706-.309-.83-.7-.754-.626-.54-.741.149-.08.325-.161.806.262.337.3.54.641.439.788" data-name="Path 20090"
            fill="#fff"
            id="Path_20090" transform="translate(-431.557 -126.383)" />
        <path d="M257.2,827.726c-.1.147-.362-.019-.7-.308-.83-.7-.754-.624-.54-.739.15-.081.327-.162.805.259.338.3.541.646.44.789" data-name="Path 20091"
            fill="#fff"
            id="Path_20091" transform="translate(-434.357 -125.028)" />
        <path d="M260.905,825.5c-.1.147-.363-.019-.706-.309-.83-.7-.754-.624-.539-.741.149-.08.326-.161.805.261.337.3.539.643.44.789" data-name="Path 20092"
            fill="#fff"
            id="Path_20092" transform="translate(-436.929 -123.481)" />
        <path d="M399.675,832.63a4.243,4.243,0,0,1,.116,2.092s-7.529.926-9.951.3a12.335,12.335,0,0,1-2.7-1.4c-.169-.106-.467-.745-.631-.852-.3-.2-.462.134-.721-.046a8.668,8.668,0,0,1-1.151-.878c-.659-3.813.22-5.35.22-5.35s4.822-2.352,6.023-.711c2.828,3.861,7.728,5.029,8.791,6.843" data-name="Path 20093"
            fill="#1b5fb3"
            id="Path_20093" transform="translate(-523.648 -124.05)" />
        <path d="M399.964,844.5c-2.325.33-7.2.988-8.1.807a15.129,15.129,0,0,1-7.366-4.182,16.894,16.894,0,0,0,.214,1.778,8.669,8.669,0,0,0,1.151.878c.259.18.418-.153.721.046.163.107.461.745.631.852a12.333,12.333,0,0,0,2.7,1.4c2.422.627,9.95-.3,9.95-.3a5.945,5.945,0,0,0,.1-1.277" data-name="Path 20094"
            fill="#fff"
            id="Path_20094" transform="translate(-523.719 -135.105)" />
        <path d="M412.385,839.435c.032.163-.281.253-.7.228a11.98,11.98,0,0,0-2.591.141c-.43.068-.794.007-.812-.168s.317-.4.74-.461a11.914,11.914,0,0,1,2.557-.113c.415.027.775.21.808.374" data-name="Path 20095"
            fill="#fff"
            id="Path_20095" transform="translate(-540.234 -133.655)" />
        <path d="M407.753,835.925c.026.167-.291.294-.708.309a12.248,12.248,0,0,0-2.558.38c-.422.108-.778.075-.79-.1s.318-.44.735-.543a12.209,12.209,0,0,1,2.529-.35c.411-.012.763.142.792.308" data-name="Path 20096"
            fill="#fff"
            id="Path_20096" transform="translate(-537.052 -131.28)" />
        <path d="M403.275,832.646c.023.173-.3.333-.71.39a12.536,12.536,0,0,0-2.519.608c-.414.147-.762.14-.769-.048s.317-.477.726-.619a12.532,12.532,0,0,1,2.495-.577c.41-.049.755.076.778.246" data-name="Path 20097"
            fill="#fff"
            id="Path_20097" transform="translate(-533.982 -129.039)" />
        <path d="M286.345,471.1,274.933,519.46l-14.911,59.3,9.477,3.736,15.758-55.7,17.117-54.884Z" data-name="Path 20098"
            fill="#123d58"
            id="Path_20098" transform="translate(-437.279 121.855)" />
        <path d="M383.2,475.987l15.487,3.261-4.075,58.687-3.021,46.159a31.986,31.986,0,0,0-5.609,1.824c-.794.372-2.917,1.535-2.917,1.535l1.223-52.777Z" data-name="Path 20099"
            fill="#194866"
            id="Path_20099" transform="translate(-522.724 118.459)" />
        <path d="M280.4,314.6l-9.373,8.559,8.354,7.947,5.911-2.241Z" data-name="Path 20100"
            fill="#3bb6d5"
            id="Path_20100" transform="translate(-444.923 230.531)" />
        <path d="M324.529,297.614l-10.6-1.018s-2.852,9.17-6.724,9.374a5.38,5.38,0,0,1-5.5-3.872c0-.611,2.649,15.08,2.649,15.08l11.411,15.487s.2,10.8-1.018,16.71,27.917,6.928,27.917,6.928-.408-26.9-9.17-41.774-8.966-16.914-8.966-16.914" data-name="Path 20101"
            fill="#4d92c6"
            id="Path_20101" transform="translate(-466.226 243.034)" />
        <path d="M375.039,300.394s-.408-2.038,3.871-.2,9.781,8.762,9.781,8.762l-6.317,9.17s-4.483-3.056-7.336-17.729" data-name="Path 20102"
            fill="#3bb6d5"
            id="Path_20102" transform="translate(-517.143 241.069)" />
        <path d="M273.378,231.518s2.763,1.419,2.853.137c.237-3.431,1.564-7.581.849-10.868-1.019-4.687-6.012-5.91-6.012-5.91l-3.871.408a11.3,11.3,0,0,1-2.445-1.426c-2.446-2.242-2.038.407-4.483.407s-1.019.815-1.019,1.63-.611.815-1.223-.2-.407,2.446-.407,2.446l2.649,2.852a2.439,2.439,0,0,1,2.649-2.649c2.853,0,6.521,1.833,6.521,1.833s1.427,2.14.611,3.771a6.853,6.853,0,0,0-.407,2.343l1.223.2s.339-1.63,1.222-1.63c1.742,0,1.291,1.223,1.291,2.853Z" data-name="Path 20103"
            fill="#194866"
            id="Path_20103" transform="translate(-435.588 301.115)" />
        <path d="M220.588,313.6s3.26-5.027,1.766-5.706-2.988-.136-3.667-.951-1.766-2.173-1.9-1.358-.136,1.223-1.63.271-1.359.816-1.5,1.359,1.5,1.494,2.038,1.494-.272,3.94-.272,3.94l-1.63.271.136,1.63,4.347.408Z" data-name="Path 20104"
            fill="#e9d6b8"
            id="Path_20104" transform="translate(-405.078 236.967)" />
        <path d="M224.786,314.6s-2.717,24.046-2.309,27.034,2.989,3.26,5.162.272a17.12,17.12,0,0,0,2.717-7.607c0-.408-2.989-17.525-3.26-18.612s-2.309-1.087-2.309-1.087" data-name="Path 20105"
            fill="#e9d6b8"
            id="Path_20105" transform="translate(-411.178 230.531)" />
        <path d="M329.21,348.589s-5.706-.542-6.113.816,0,12.091,0,12.091l1.766,1.359s2.988-7.336,2.445-9.51l4.075.136s-1.494-4.892-2.173-4.892" data-name="Path 20106"
            fill="#e2c59c"
            id="Path_20106" transform="translate(-480.955 207.002)" />
        <path d="M349.678,345.513l-8.83-.679a43.156,43.156,0,0,1,.271,5.434c-.136,1.63,4.619,2.717,9.1,2.581s-.543-7.336-.543-7.336" data-name="Path 20107"
            fill="#387bff"
            id="Path_20107" transform="translate(-493.407 209.536)" />
        <path d="M317.033,385.029s-.135,2.581-.272,2.989-4.891-4.076-5.842-5.027-.272-1.223.815-.951,2.582,0,2.582-.544.543,1.224.543,1.224-1.495.271,2.173,2.309" data-name="Path 20108"
            fill="#387bff"
            id="Path_20108" transform="translate(-472.309 184.148)" />
        <path d="M332.972,295.977a6.825,6.825,0,0,0-3.261-.544,16.43,16.43,0,0,1-5.569-.678,6.105,6.105,0,0,1-2.038-1.5,1.726,1.726,0,0,0,.135,1.088c.272.542-1.766.542-1.766.542s-1.223.544-.544.816,1.9.951,1.9.951a.723.723,0,0,1-.679.543c-.544,0,.544.408,1.222.408a6.76,6.76,0,0,1,2.446-.136c1.086.271,5.705,1.495,5.705,1.495s5.57-2.038,2.446-2.989" data-name="Path 20109"
            fill="#e2c59c"
            id="Path_20109" transform="translate(-478.738 245.351)" />
        <path d="M368.585,249.26s1.087-8.559-3.533-9.238a11.259,11.259,0,0,0-7.471,1.223s.679,5.434-.271,5.434.136,1.359.271,1.766a20.115,20.115,0,0,0,1.746,2.284l1.047-.449a4.047,4.047,0,0,1,.1,1.807c.288.331.517.585.636.7.544.544,4.755-.136,4.755-.136l.136,3.532,2.852,1.223Z" data-name="Path 20110"
            fill="#e2c59c"
            id="Path_20110" transform="translate(-504.57 282.423)" />
        <path d="M359.989,233.241s-3.668,1.087-5.026.815-3.667,1.766-.135,4.483,5.434,2.31,5.434,2.31-1.767-1.9-1.087-3.532,1.766-2.31.815-4.076" data-name="Path 20111"
            fill="#163f59"
            id="Path_20111" transform="translate(-501.816 287.03)" />
        <path d="M372.047,233.4s.271-2.717,6.656-1.63,8.424,8.966,4.212,11.819-4.89,2.446-5.57.951l-.68-1.494s1.223-2.446.137-2.853-1.359.408-1.359.408l-.679.544s-1.495-3.261-1.63-3.668-1.359-.952-1.9-2.175.815-1.9.815-1.9" data-name="Path 20112"
            fill="#163f59"
            id="Path_20112" transform="translate(-514.418 288.23)" />
        <path d="M411.85,265.7s.261,2.207,3.125,2.31c3.8.135,5.3,2.581,5.162,5.705a9.749,9.749,0,0,0-5.705-2.852c-2.847-.329-2.718-3.668-2.582-5.163" data-name="Path 20113"
            fill="#163f59"
            id="Path_20113" transform="translate(-542.673 264.491)" />
        <path d="M398.475,273.7s.272,2.309,1.631,2.173a5.126,5.126,0,0,1,4.754,3.533,20.723,20.723,0,0,1,.679,4.891,6.566,6.566,0,0,0-4.347-3.4c-5.441-.989-3.668-5.842-2.717-7.2" data-name="Path 20114"
            fill="#163f59"
            id="Path_20114" transform="translate(-532.695 258.934)" />
        <path d="M366.51,311.138s4.891-.816,6.521-2.174,1.495-15.894,1.223-16.709-6.384-2.445-8.967-2.173-2.309.136-3.8,1.222a15.59,15.59,0,0,1-2.241,1.352c-.379.186-.612.279-.612.279l1.087,4.348,2.717-1.087-1.495,10.732s-3.939,5.706,5.57,4.212" data-name="Path 20115"
            fill="#e09a3f"
            id="Path_20115" transform="translate(-505.756 247.579)" />
        <path d="M360.781,332.384a7.2,7.2,0,0,0-3.8,5.977c-.028.3-3.532.136-9.646,1.766a77.8,77.8,0,0,1-11.276,2.037l-.543,3.8c1.439-.405,3.4-.136,5.705-1.359,1.225-.648,13.993,2.853,18.34,2.445s5.027-1.9,5.163-4.347-.271-5.57-3.939-10.325" data-name="Path 20116"
            fill="#e9d6b8"
            id="Path_20116" transform="translate(-489.702 218.182)" />
        <path d="M109.359,295.191l4.06.068s6.058-2.2,7.057-2.2c.2,0-.332-.8.6-.8s1.731,1.864,1.93,2.263-.465.466-1.065.665-7.39,5.526-7.923,5.726-2.8.133-5.858-1,1.2-4.727,1.2-4.727" data-name="Path 20117"
            fill="#e2c59c"
            id="Path_20117" transform="translate(-331.052 246.044)" />
        <path d="M110.672,360.755l5.459.133a11.3,11.3,0,0,0,1.066,4.792c1.2,2.73,1.6,3,1.8,3.995s-.155,2.054,3.063.8c5.459-2.13,3.2-2.464,3.928-2.53s-3.242.174-3.795-.133c-.6-.333-1.863-5.592-2.2-8.588s-4.86-3.595-7.922-4.726c-1.519-.562-1.4,6.258-1.4,6.258" data-name="Path 20118"
            fill="#e2c59c"
            id="Path_20118" transform="translate(-333.564 202.848)" />
        <path d="M78.089,352.91s-1.93,2.33,4.994,4.793,6.79,1.065,6.79,1.065l2-7.656s-5.392-3.262-7.456-2c-1.988,1.218-6.124,3.2-6.324,3.795" data-name="Path 20119"
            fill="#163f59"
            id="Path_20119" transform="translate(-310.767 206.765)" />
        <path d="M79.131,253.2a4.861,4.861,0,0,1,6.59,1.9,10.924,10.924,0,0,0,2.331,2.9c.432.466-.054,1.369-.054,1.369a9.043,9.043,0,0,1-.379,2.925c-.5,1.431-2.346,2.4-4.095,2.5-1.264.067-1.1.8-1.4,2.4a1.6,1.6,0,0,1-3,.7c-1.1-1.4-1-3.494-2.1-4.893s-4.394-8.687,2.1-9.786" data-name="Path 20120"
            fill="#e2c59c"
            id="Path_20120" transform="translate(-308.945 273.589)" />
        <path d="M64.847,247.811a8.212,8.212,0,0,1,6.691-.2c-1.017-1.183,3.695.4,1.4,1.1s-2.6-.1-1.9,1.3-1.128,5.879-2.7,4.793c-1.3-.9-2.3-.5-2.4.7s1.4,2.3,1.5,3.1.3,3.1-1.5,2.5-6.291-4.393-5.794-7.989,1.2.2,1.6-1.3a5.136,5.136,0,0,1,3.1-3.994" data-name="Path 20121"
            fill="#163f59"
            id="Path_20121" transform="translate(-298.457 277.48)" />
        <path d="M82.068,297.475s-5.992-1.132-6.458-1.2-2.529.333-3.262-.2-.266.6-.266.6a58.653,58.653,0,0,1-2.064,5.725c-.533.866-4.393,5.659-3.462,9.852a14.076,14.076,0,0,0,3.662,6.724s4.344-6.394,8.521-6.857c.37-.041-.643-.679-1.49-1.135-.24-.129.965-.116-.209-2.144-.3-.515,2.7-5.707,2.7-5.707l1.863.266s.866-3.794.466-5.925" data-name="Path 20122"
            fill="#86bbd8"
            id="Path_20122" transform="translate(-302.83 243.493)" />
        <path d="M93.445,306.238s3.338,1.242,3.493,4.27c.13,2.524-6.531,15.514-8.307,18.553-1.2,2.057-2.717,1.592-6.987-.931-2.636-1.558-9.625-5.123-9.625-5.123s-.932-.777-3.416,0-3.105,0-3.105,0l-.776-.777-.465-1.086-3.106-.622s.156-.621,2.951-.621c.932,0,2.212-.97,2.1-1.319,0,0-1.979-.932-1.01-1.4,0,0,.854.408,1.825.815s3.784,1.695,4.231,1.825c11.645,3.377,13.973,4.231,14.439,4.542,0,0,5.28-16.418,7.763-18.127" data-name="Path 20123"
            fill="#e9d6b8"
            id="Path_20123" transform="translate(-299.176 236.338)" />
        <path d="M231.278,103.716A6.284,6.284,0,0,1,225,97.439V.832a.831.831,0,1,1,1.662,0V97.439a4.616,4.616,0,0,0,9.231,0,.83.83,0,1,1,1.661,0,6.283,6.283,0,0,1-6.276,6.277" data-name="Path 20124"
            fill="#8dcfff"
            id="Path_20124" transform="translate(-412.958 449)" />
        <path d="M8.389,69.6a9.2,9.2,0,0,1,8.043,4.773,17.015,17.015,0,0,1,28.948,3.408,34.512,34.512,0,0,1,24.334-10c.28,0,.546.034.825.042.505-.022,1.012-.042,1.521-.042a34.534,34.534,0,0,1,24.33,9.991,17.018,17.018,0,0,1,28.949-3.4,9.211,9.211,0,0,1,16.564.873.964.964,0,0,0,.1.018A72.488,72.488,0,0,0,0,75.012,9.231,9.231,0,0,1,8.389,69.6" data-name="Path 20125"
            fill="#f7bc38"
            id="Path_20125" transform="translate(-256.711 437.014)" />
        <path d="M67.256,67.787a17.03,17.03,0,0,1,15.5,10,34.513,34.513,0,0,1,24.334-10c.28,0,.546.034.825.042.505-.022,1.012-.042,1.522-.042a34.534,34.534,0,0,1,24.33,9.991,17.018,17.018,0,0,1,28.949-3.4c.037-.071.089-.134.13-.2-5.483-32.544-27.789-56.915-54.494-56.915-26.757,0-49.1,24.457-54.529,57.1a17.007,17.007,0,0,1,13.43-6.572" data-name="Path 20126"
            fill="#fff8e8"
            id="Path_20126" transform="translate(-294.09 437.013)" />
        <path d="M173.057,67.787c.28,0,.546.034.825.042.505-.022,1.012-.042,1.522-.042a34.534,34.534,0,0,1,24.33,9.991c.021-.05.057-.094.083-.145-2.058-34.261-12.687-60.372-25.5-60.372-12.828,0-23.457,26.144-25.5,60.438a34.525,34.525,0,0,1,24.242-9.913" data-name="Path 20127"
            fill="#f7bc38"
            id="Path_20127" transform="translate(-360.053 437.013)" />
        <path d="M235.464,305.11a1.384,1.384,0,0,0-1.385,1.385,4.063,4.063,0,0,1-8.125,0v-5.449h-2.77V306.5a6.832,6.832,0,0,0,13.663,0,1.384,1.384,0,0,0-1.384-1.385" data-name="Path 20128"
            fill="#0253a2"
            id="Path_20128" transform="translate(-411.698 239.943)" />
        <rect data-name="Rectangle 5704" fill="none" height="262.189" id="Rectangle_5704"
            transform="translate(-256.711 449)" width="142" />
    </g>
</svg>
