<svg xmlns:xlink="http://www.w3.org/1999/xlink" height="293.314" viewBox="0 0 355 293.314"
    width="355" xmlns="http://www.w3.org/2000/svg">
    <defs>
        <clipPath id="clip-path">
            <path d="M51.473,0q-.2,0-.409.013C44.85.393,42.895,14.516,38.82,11c-7.409-6.388-10.309,5.114-13.808,11.08A35.855,35.855,0,0,1,0,39.46H125.312s-2.148-2.9-4.941-2.9-2.727-2.08-4.079-3.577c-2.451-2.715-3.89-2.075-5.584-1.435a6.216,6.216,0,0,1-2.944.535c-3.437-.341-7.366-6.258-10.158-10.687s-5.37-6.817-9.235-7.158a11.031,11.031,0,0,0-4.512.864c-2.162.74-4.263,1.48-6.44.159-3.652-2.216-5.574-7.458-9.279-7.076-5.871.608-6.617,1.964-9.623-1.444C55.613,3.457,55.273,0,51.483,0Z" data-name="Path 3304"
                fill="none"
                id="Path_3304" />
        </clipPath>
        <linearGradient gradientUnits="objectBoundingBox" id="linear-gradient" x1="0.017" x2="0.021" y1="1.547"
            y2="1.547">
            <stop offset="0" stop-color="#f69290" />
            <stop offset="1" stop-color="#fff" />
        </linearGradient>
        <clipPath id="clip-path-2">
            <path d="M765.14,161.981h88.621S848.1,148.235,841.1,148.217a9.239,9.239,0,0,0-6.281,2.106c-1.819,1.315-3.575,2.63-8.68,1.892-9.207-1.334-9.745-27.97-24.171-27.97-15.5,0-36.828,37.736-36.828,37.736" data-name="Path 3305"
                fill="none"
                id="Path_3305" />
        </clipPath>
        <linearGradient id="linear-gradient-2" x1="-19.857" x2="-19.832" y1="0.711" y2="0.711"
            xlink:href="#linear-gradient" />
        <clipPath id="clip-path-3">
            <rect data-name="Rectangle 1633" fill="none" height="276.02" id="Rectangle_1633"
                width="125.462" />
        </clipPath>
    </defs>
    <g data-name="Group 15315" id="Group_15315" transform="translate(-10 -130)">
        <g data-name="Group 14180" id="Group_14180" transform="translate(10 130)">
            <g clip-path="url(#clip-path)" data-name="Group 14179" id="Group_14179">
                <rect data-name="Rectangle 1631" fill="url(#linear-gradient)" height="58.056" id="Rectangle_1631"
                    transform="translate(-5.93 0.912) rotate(-8.746)"
                    width="129.855" />
            </g>
        </g>
        <g data-name="Group 14182" id="Group_14182" transform="translate(-488.761 26.347)">
            <g clip-path="url(#clip-path-2)" data-name="Group 14181" id="Group_14181">
                <rect data-name="Rectangle 1632" fill="url(#linear-gradient-2)" height="89.465" id="Rectangle_1632"
                    transform="translate(764.273 161.961) rotate(-88.683)"
                    width="39.763" />
            </g>
        </g>
        <g data-name="Group 14188" id="Group_14188" transform="translate(-2)">
            <g data-name="Group 14187" id="Group_14187" transform="translate(127 147.294)">
                <g clip-path="url(#clip-path-3)" data-name="Group 14186" id="Group_14186">
                    <path d="M58.1,571.729s1.678-5.136,1.8-5.909,5.221-2.614,3.569-5.933c-.9-1.8-6.047-10.57-10.19-10.19-3.614.332-9.5,2.2-9.044,6.925s5.058,7.062,6.715,8.505c1.179,1.028,1.486,7.454-.582,8.734-.848.525,7.734-2.133,7.734-2.133" data-name="Path 3306"
                        fill="#e2c59c"
                        id="Path_3306" transform="translate(-31.338 -389.65)" />
                    <path d="M43.309,557.365c-.062.506,1.894,6.159.873,7.861-1.747,2.911-2.844,3.822-4.367,4.076-1.747.291-5-1.465-6.465-2.248s-.47-.82-2.542-1.467c-4.7-1.467-3.531-8.019-3.042-9.094s2.259-2.445,3.922-1.761,13.077-9.3,11.621,2.633" data-name="Path 3307"
                        fill="#163f59"
                        id="Path_3307" transform="translate(-19.331 -390.913)" />
                    <path d="M33.908,541.727s.578,9.338-2.113,7.081-4.759-1.615-5.052-3.9-1.373-3.02-.472-3.284-1.55-5.036.677-8.094,1.218-1.484,1.685-.794c.53.785,2.006-2.053,2.76-3.289.97-1.59,7.024-3.109,6.6-.578s1.937-1.093,2.515.242,1.817-.344,1.987-1.56,3.521,3.294,1.221,8.668-8.224,5.646-9.806,5.507" data-name="Path 3308"
                        fill="#163f59"
                        id="Path_3308" transform="translate(-18.374 -373.819)" />
                    <path d="M77.161,561.939s2.329-1.165,2.911.291l.582,1.456.582-1.747s-3.785-5.241-3.785-6.7-.582,5.532-.291,6.7" data-name="Path 3309"
                        fill="#163f59"
                        id="Path_3309" transform="translate(-54.638 -393.449)" />
                    <path d="M283.844,113.291s-4.987-.88-8.019,1.174.392,2.64-1.075,4.107-.293,3.52-2.249,4.5-.2,1.662,1.564,1.565.489.978-.293,2.738,1.565,2.934,1.272,4.694,1.369,4.694,4.2,3.911,19.363,2.934,17.407-12.712c-.715-5.72-8.312-15.549-12.81-9.975" data-name="Path 3310"
                        fill="#163f59"
                        id="Path_3310" transform="translate(-192.556 -79.135)" />
                    <path d="M272.4,198.606a6.18,6.18,0,0,0-1.662,4.2c.1,2.445-1.956,7.531-2.249,9.584s2.445,7.237,3.325,5.085,6.747-17.994.587-18.873" data-name="Path 3311"
                        fill="#e2c59c"
                        id="Path_3311" transform="translate(-190.307 -140.784)" />
                    <path d="M253.3,252.775a12.336,12.336,0,0,1-3.619-2.25c-1.369-1.369-3.618-3.129-4.009-4.2s-.88-1.858-.293-2.152,1.37-.293,2.641.391a3.554,3.554,0,0,0,3.031,0,.886.886,0,0,1,1.174,1.075c-.2.88.2,2.25.684,2.347s3.13.293.392,4.792" data-name="Path 3312"
                        fill="#7dccd0"
                        id="Path_3312" transform="translate(-173.745 -172.95)" />
                    <path d="M403.1,203.236s2.054,5.672,2.151,7.334-.88,2.934-1.564,1.369-4.5-6.454-3.521-7.725a3.39,3.39,0,0,1,2.934-.978" data-name="Path 3313"
                        fill="#e2c59c"
                        id="Path_3313" transform="translate(-283.546 -144.045)" />
                    <path d="M310.81,179.114s6.259,3.325,7.236,4.889.782,3.912-.782,5.965-4.694-2.934-7.628-2.836-20.83-1.369-23.47,1.858-3.032,7.334-4.107,4.987-.489-8.8-1.467-9.388.684-2.445,2.054-2.934,2.053-2.054,8.116-3.325,18.971-.293,20.048.783" data-name="Path 3314"
                        fill="#163f59"
                        id="Path_3314" transform="translate(-198.692 -125.986)" />
                    <path d="M5.916,696.508s-2.249,6.063-3.032,8.508a10.691,10.691,0,0,1-2.543,4.6c-.88.88.2,1.467.391,2.347a18.859,18.859,0,0,0,.587,1.956,7.03,7.03,0,0,1,.88-1.956c.489-.587,1.858-.782,2.053-1.955a16.649,16.649,0,0,1,2.054-5.868c1.467-2.543,4.3-5.476,3.324-7.237s-3.716-.391-3.716-.391" data-name="Path 3315"
                        fill="#e2c59c"
                        id="Path_3315" transform="translate(0 -493.368)" />
                    <path d="M91.262,820.7a56.226,56.226,0,0,1,0,8.068c-.367,2.421-1.32,10.635-1.614,12.322s-4.914,1.54-4.327-.587-.293-5.721-.66-8.655-.807-8.948.073-11.589,6.527.44,6.527.44" data-name="Path 3316"
                        fill="#e9d6b8"
                        id="Path_3316" transform="translate(-59.701 -580.692)" />
                    <path d="M53.753,820.995l-6.573-.147a21.513,21.513,0,0,0,.47,4.547c.548,2.86,2.425,9.535,2.5,12.028s-1.956,4.988,0,4.254,3.6.953,3.364.073a58.541,58.541,0,0,1,.313-10.708c.47-3.08.547-8.728-.078-10.048" data-name="Path 3317"
                        fill="#e9d6b8"
                        id="Path_3317" transform="translate(-33.442 -581.867)" />
                    <path d="M76.352,762.235l-.293,15.647.489,3.422L65.4,781.6l-1.076-10.855-.684-4.3-4.694-3.52Z" data-name="Path 3318"
                        fill="#194866"
                        id="Path_3318" transform="translate(-41.784 -540.318)" />
                    <path d="M92.025,821.688l-11.246.489.1,1.564,11.051.1Z" data-name="Path 3319"
                        fill="#123d58"
                        id="Path_3319" transform="translate(-57.262 -582.462)" />
                    <path d="M62.671,762.877l16.322-.642-.005.276c-.494,1.635-1.559,4.663-2.831,5.3-1.76.88-3.13,0-4.3,3.13s-1.369,6.747-2.542,4.2c-1.014-2.2-.72-4.974-2.823-7.391l-.209-1.312-3.239-2.429a4.07,4.07,0,0,1-.37-1.134" data-name="Path 3320"
                        fill="#123d58"
                        id="Path_3320" transform="translate(-44.425 -540.318)" />
                    <path d="M73.84,765.007c-2.9.438-5.159,0-7.094,1.556a9.438,9.438,0,0,0-.99.933l-.107-.717-3.278-2.625A4.64,4.64,0,0,1,62,762.93l16.519-.694-.009.137a9.079,9.079,0,0,1-4.667,2.634" data-name="Path 3321"
                        fill="#194866"
                        id="Path_3321" transform="translate(-43.947 -540.319)" />
                    <path d="M40.778,764.587,39.8,781.016H50.264l.88-9.974s-2.542-6.357-2.934-6.357-7.432-.1-7.432-.1" data-name="Path 3322"
                        fill="#194866"
                        id="Path_3322" transform="translate(-28.213 -541.986)" />
                    <path d="M49.983,817.994l-10.855.2.1,1.271,10.659.1Z" data-name="Path 3323"
                        fill="#123d58"
                        id="Path_3323" transform="translate(-27.737 -579.844)" />
                    <path d="M47.945,768.5c-1.337-.493-3.881-1.388-5.208-1.852l.123-2.06s7.041.1,7.432.1,2.934,6.357,2.934,6.357l-.062.7a33.286,33.286,0,0,1-1.5,5.847,26.473,26.473,0,0,0-1.369-4.4c-.489-1.076-.783-1.76.587-1.565s-1.076-2.445-2.934-3.129" data-name="Path 3324"
                        fill="#123d58"
                        id="Path_3324" transform="translate(-30.295 -541.986)" />
                    <path d="M339.214,937.586a8.9,8.9,0,0,1,.147,1.687,5.929,5.929,0,0,0,0,1.174l-8.655-.147a3.458,3.458,0,0,1,0-2.054c.367-.953,8.361-1.174,8.508-.66" data-name="Path 3325"
                        fill="#e2c59c"
                        id="Path_3325" transform="translate(-234.309 -664.427)" />
                    <path d="M275.012,863.6s.734,2.494-.367,3.3-5.134,1.467-6.381,1.32-4.914-4.988-5.354-6.161-.954-4.914-.22-5.574a2.075,2.075,0,0,1,2.2-.44c.807.22,9.462,6.307,10.122,7.554" data-name="Path 3326"
                        fill="#e9d6b8"
                        id="Path_3326" transform="translate(-185.949 -606.726)" />
                    <path d="M207.885,464.677s1.662.88,1.173,6.161a34.543,34.543,0,0,0,.293,5.476c0,.685-.782,1.076-1.173.2s-.22-4.524-1.467-4.3c-1.207.213-4.107,2.543-4.01,1.467s5.085-10.268,5.183-9" data-name="Path 3327"
                        fill="#e2c59c"
                        id="Path_3327" transform="translate(-143.686 -329.306)" />
                    <path d="M334.371,456.3,333.2,512.045l-2.739,9.779-.39,61.217-.391,3.325a5.58,5.58,0,0,1,4.3-.2l5.477,1.565.977-44.4s2.347-27.381,3.52-31.684,5.672-52.808,4.3-61.022-13.3,3.716-13.887,5.672" data-name="Path 3328"
                        fill="#194866"
                        id="Path_3328" transform="translate(-233.695 -317.412)" />
                    <path d="M307.086,442.034s-7.369,6.878-11.93,8.019c-1.565.391-8.606,48.31-8.606,48.31L283.813,554.1s.587,5.28-.2,4.694.924,3.889.978,4.694c.2,2.934-7.537,4.294-8.8,2.542-2.543-3.521-.978-7.041-.782-16.233s.782-46.94.782-45.18.2-5.281.391-6.65.979-35.6,2.934-45.767.782-16.821,2.738-17.6,25.035,6.65,25.23,7.432" data-name="Path 3329"
                        fill="#163f59"
                        id="Path_3329" transform="translate(-194.48 -308.031)" />
                    <path d="M384.762,241.9s2.64,20.537,5.867,23.47,5.281-.88,6.455-2.64,2.64-7.334-2.641-22.59-9.681.88-9.681,1.76" data-name="Path 3330"
                        fill="#e9d6b8"
                        id="Path_3330" transform="translate(-272.743 -165.599)" />
                    <path d="M392.037,253.027a69.354,69.354,0,0,1,1.369,13.3c-.1,2.992-.415,10.314-2.1,10.983-1.862-3.624-3.437-12.263-4.28-17.614.812-4.629-.224-9.107,5.014-6.669" data-name="Path 3331"
                        fill="#e2c59c"
                        id="Path_3331" transform="translate(-274.345 -178.873)" />
                    <path d="M233.7,278.365s-6.063,15.256-7.824,20.83-3.779,10.527-8.8,15.549c-5.867,5.868-12.517,16.429-15.451,18.19s9.582-20.722,10.17-24.35,2.542-6.215,6.064-13.006c2.738-5.281,5.671-25.426,5.671-25.426Z" data-name="Path 3332"
                        fill="#e9d6b8"
                        id="Path_3332" transform="translate(-142.609 -191.499)" />
                    <path d="M273.333,287.533c.146-.818.283-1.607.409-2.348a22.442,22.442,0,0,1,5.606-2.074l5.285,4.269q-.014.4-.046.827c-.86,2.175-3.681,9.344-5.739,14.951a47.121,47.121,0,0,0-1.433-8.369c-1.314-4.436-1.945-6.657-4.082-7.256" data-name="Path 3333"
                        fill="#e2c59c"
                        id="Path_3333" transform="translate(-193.755 -200.686)" />
                    <path d="M374.715,221.6s3.521-4.4,8.8-3.814,1.467-1.761,0-6.161-4.987-14.669-11.441-14.082,2.64,24.057,2.64,24.057" data-name="Path 3334"
                        fill="#d9a329"
                        id="Path_3334" transform="translate(-262.108 -140.011)" />
                    <path d="M278.707,202.636s-5.281,3.227-8.215,14.082-2.64,9.094-2.64,9.094,8.508,5.868,11.442,7.335,0-28.457-.587-30.511" data-name="Path 3335"
                        fill="#d9a329"
                        id="Path_3335" transform="translate(-189.864 -143.641)" />
                    <path d="M319.246,195.2s1.467,9.388,2.934,29.924-.88,48.7-.88,48.7-6.161-1.76-10.855-1.467-13.2,3.52-16.429.293-2.054-16.429-.88-26.4,1.76-44.886.587-48.114,17.309-6.161,25.524-2.934" data-name="Path 3336"
                        fill="#f7bc38"
                        id="Path_3336" transform="translate(-206.933 -137.375)" />
                    <path d="M195.319,501.694l1.76,3.594,1.32.293,3.374-2.347s.073-.953-1.247-.807a6.054,6.054,0,0,0-2.347.807l-1.32-3.081Z" data-name="Path 3337"
                        fill="#e2c59c"
                        id="Path_3337" transform="translate(-138.454 -354.54)" />
                    <path d="M203.38,516.795l1.393,1.393,4.547-.22a1.489,1.489,0,0,0-1.027-1.173,35.966,35.966,0,0,0-4.914,0" data-name="Path 3338"
                        fill="#e2c59c"
                        id="Path_3338" transform="translate(-144.168 -366.266)" />
                    <path d="M193.194,468.578s-1.8,6.029-2.152,7.041c-.343.978-1.858,2-2.152,3.032s0,4.743-.147,5.476,1.32-.373,1.32-4.547c0-.635,1.247-1.393,3.887-4.327a9.606,9.606,0,0,0,2.86-7.848c-.147-2.641-3.618,1.174-3.618,1.174" data-name="Path 3339"
                        fill="#e9d6b8"
                        id="Path_3339" transform="translate(-133.786 -330.665)" />
                    <path d="M268.393,876.289c-2.557-.269-4.914-4.987-5.354-6.161a12.774,12.774,0,0,1-.536-2.833c.7,2.62,3.266,7.533,5.89,7.821,5.354.586,6.381-1.32,6.959-2.307a2.385,2.385,0,0,1-.578,2.161,9.985,9.985,0,0,1-6.381,1.32" data-name="Path 3340"
                        fill="#e2c59c"
                        id="Path_3340" transform="translate(-186.078 -614.791)" />
                    <path d="M338.454,919.448a20.744,20.744,0,0,1,.22,2.934c-.073.807-.147,1.687-3.08,1.54a42.564,42.564,0,0,0-5.5,0c-.953.073-1.247-4.987,0-6.821s8.288,1.833,8.361,2.347" data-name="Path 3341"
                        fill="#e9d6b8"
                        id="Path_3341" transform="translate(-233.402 -649.736)" />
                    <path d="M146.021,511.66s-2.641,2.64-2.934,3.716-4.3,10.073-4.4,10.66-2.25,3.325-3.032,4.792-3.716,4.2-6.455,6.063-.489,4.889-.489,4.889,9.486-6.259,11.441-9,4.205-12.322,4.4-13.3,1.663,0,2.054-1.272.978-3.716.978-3.716-.978-2.542-1.565-2.836" data-name="Path 3342"
                        fill="#e2c59c"
                        id="Path_3342" transform="translate(-90.622 -362.696)" />
                    <path d="M100.933,598.594s9.682-6.748,10.072-7.53,3.228,4.205,3.716,6.161,1.075,4.6-.293,5.281-9.388,4.987-10.758,7.53-2.738-11.442-2.738-11.442" data-name="Path 3343"
                        fill="#d1dbea"
                        id="Path_3343" transform="translate(-71.547 -418.923)" />
                    <path d="M28.723,626.849c-.144-.577-3.619.489-6.063,4.2s-4.694,16.821-4.694,16.821a4.975,4.975,0,0,0,2.347,1.76c1.174.2,5.085-.782,6.356-.293s2.152-22.1,2.054-22.492" data-name="Path 3344"
                        fill="#d1dbea"
                        id="Path_3344" transform="translate(-12.735 -444.244)" />
                    <path d="M45.2,616.337s8.41-1.956,9.486-2.249,3.814,8.019,3.716,14.864-1.075,10.464.685,16.331.782,12.811.782,12.811-9.877,2.444-17.309,1.467-7.334-.489-7.921-.489,4.01-14.571,3.13-25.524.782-15.353,2.64-16.038a33.174,33.174,0,0,1,4.792-1.173" data-name="Path 3345"
                        fill="#aebddc"
                        id="Path_3345" transform="translate(-24.514 -435.297)" />
                    <path d="M87.025,887.515s-3.227-2.127-4.254-.66a9.125,9.125,0,0,0-1.32,3.374s1.613,3.814,2.2,4.254,5.207,1.1,5.207,1.1,2.567-3.227,1.907-4.034a2.187,2.187,0,0,0-1.761-.88c-.367,0-1.54-2.787-1.98-3.154" data-name="Path 3346"
                        fill="#d1dbea"
                        id="Path_3346" transform="translate(-57.737 -628.291)" />
                    <path d="M85.485,896.255c.44.88,2.934,4.474,3.374,4.4a6.128,6.128,0,0,0,1.751-3.4c.052.055.1.105.156.169.66.807-1.907,4.034-1.907,4.034s-4.62-.66-5.207-1.1-2.2-4.254-2.2-4.254c.953-2.934,3.594-.733,4.034.147" data-name="Path 3347"
                        fill="#aebddc"
                        id="Path_3347" transform="translate(-57.737 -634.17)" />
                    <path d="M57.571,890.635s-1.247-1.834-2.274-1.687c-1.148.164-1.833.367-2.127,1.54a5.847,5.847,0,0,0,0,2.421l4.694.073s1.1-2.2.807-3.081-1.027-1.173-1.1-.953a12.818,12.818,0,0,0,0,1.687" data-name="Path 3348"
                        fill="#aebddc"
                        id="Path_3348" transform="translate(-37.598 -630.091)" />
                    <path d="M55.3,889.107c.683-.1,2.054,1.247,1.907,2.347a1.237,1.237,0,0,1-1.174,1.174H53.1a5.522,5.522,0,0,1,.075-1.98c.293-1.174.979-1.377,2.127-1.54" data-name="Path 3349"
                        fill="#d1dbea"
                        id="Path_3349" transform="translate(-37.598 -630.249)" />
                    <path d="M300.658,20.686s-.587,6.161.294,8.019,2.152,3.324,1.956,4.107,1.173.685,1.173.782a8.538,8.538,0,0,0,2.64,1.76c1.369.587,5.281,2.445,6.454.783s5.476,2.445,4.5-.684.1-2.64,0-5.77-1.271-17.994-17.016-9" data-name="Path 3350"
                        fill="#e9d6b8"
                        id="Path_3350" transform="translate(-212.989 -12.64)" />
                    <path d="M308.558,3.157S305.429-1.929,298.877.81c-6.15,2.569-5.291,4.6-8.127,5.183s.779-1.9.489-1.858c-6.063.88-2.543,3.227-2.543,3.227-1.173-.587-1.955-1.565-2.053,0-.088,1.408,2.733.737,1.271,1.76-1.956,1.369,1.672,1.369,2.846.88s2.249-1.467,4.4.2,3.52,2.64,3.324,3.52,1.739.2,1.272-1.76c-.3-1.271,2.151-1.858,2.836-.1s.772,2.25.283,3.423,2.357.685,2.455,1.467S306.7,20.173,308.754,19s-.2-.88.684-1.956,6.02-5.534,1.369-11.735a8.014,8.014,0,0,0-2.249-2.152" data-name="Path 3351"
                        fill="#163f59"
                        id="Path_3351" transform="translate(-203.189 0)" />
                    <path d="M384.22,124.946s-.88,4.5-2.445,4.889-2.249-3.227-.977-4.009,3.227-1.369,3.422-.88" data-name="Path 3352"
                        fill="#e9d6b8"
                        id="Path_3352" transform="translate(-269.463 -88.442)" />
                    <path d="M287.732,119.433s-1.858,3.325-3.716,3.227-2.151-.978-2.934-.293a1.549,1.549,0,0,0-.587,1.466l-.2,1.76.978.977s.782-.1.587-.586,0,.1,1.174.88,3.422,2.348,7.236-2.151-1.76-5.769-2.543-5.281" data-name="Path 3353"
                        fill="#e9d6b8"
                        id="Path_3353" transform="translate(-198.694 -84.592)" />
                    <path d="M373.006,80.373a8.187,8.187,0,0,1,3.912,3.423c1.174,2.347,2.444,8.9,2.738,9.583s-1.271,3.032-4.01,1.663-2.64-14.669-2.64-14.669" data-name="Path 3354"
                        fill="#3bb6d5"
                        id="Path_3354" transform="translate(-264.409 -56.973)" />
                    <path d="M310.284,81.716s-2.347.2-4.2,4.694-1.37,5.867-2.054,5.574-.489.782-.587,1.565.256,1.894,1.173,3.912c.489,1.076.926,1.568,1.467,2.543.488.88.649.453,2.249.293.978-.1,3.13-15.549,1.956-18.58" data-name="Path 3355"
                        fill="#3bb6d5"
                        id="Path_3355" transform="translate(-215.084 -57.925)" />
                    <path d="M326.232,74.251a8.867,8.867,0,0,1,.837.721,10.391,10.391,0,0,1,2.879,4.658c.88,3.325,1.075,22.688,1.075,23.861s3.423,2.542-.88,3.031-7.53,2.738-14.082.978-8.117-2.543-7.921-2.934a1.746,1.746,0,0,1,1.174-.88c.391,0-.392-.1-.2-.978s.587-1.075,1.369-.977.49-.783.49-1.858S313.03,85.986,312.737,81s-.293-5.574,1.857-5.77.979-1.272.979-1.272l8.606-.587s2.934-.587,2.053.88" data-name="Path 3356"
                        fill="#4d92c6"
                        id="Path_3356" transform="translate(-218.418 -51.928)" />
                    <path d="M412.051,229.764s1.369-5.672,1.564-6.454-1.271-2.836-1.467-3.325a4.9,4.9,0,0,0-1.075-1.956c-.587-.489-.49.2-.88,1.174s-1.174,1.663-1.956,1.173,1.565,7.53,3.814,9.388" data-name="Path 3357"
                        fill="#e9d6b8"
                        id="Path_3357" transform="translate(-289.274 -154.437)" />
                </g>
            </g>
        </g>
    </g>
</svg>
