<svg height="13.541" viewBox="0 0 13.671 13.541" width="13.671" xmlns="http://www.w3.org/2000/svg">
    <g data-name="layers(1)" id="layers_1_" transform="translate(0 -0.227)">
        <path d="M12.807,10.914,6.835,14.5.863,10.914a.57.57,0,0,0-.586.977L6.542,15.65a.57.57,0,0,0,.587,0l6.265-3.759a.57.57,0,1,0-.586-.977Z" data-name="Path 21940"
            fill="#23699e"
            id="Path_21940" transform="translate(0 -4.565)" />
        <path d="M12.807,15.482,6.835,19.065.863,15.482a.57.57,0,0,0-.586.977l6.265,3.759a.57.57,0,0,0,.587,0l6.265-3.759a.57.57,0,1,0-.586-.977Z" data-name="Path 21941"
            fill="#23699e"
            id="Path_21941" transform="translate(0 -6.531)" />
        <path d="M6.835,8.512a1.7,1.7,0,0,1-.872-.242L.276,4.858a.57.57,0,0,1,0-.976L5.963.469a1.693,1.693,0,0,1,1.744,0l5.687,3.412a.57.57,0,0,1,0,.976L7.707,8.27a1.7,1.7,0,0,1-.872.242ZM1.677,4.37,6.55,7.293a.555.555,0,0,0,.57,0L11.993,4.37,7.12,1.446a.555.555,0,0,0-.57,0h0Z" data-name="Path 21942"
            fill="#23699e"
            id="Path_21942" transform="translate(0 0)" />
    </g>
</svg>
