<svg xmlns="http://www.w3.org/2000/svg" width="11.152" height="13.383" viewBox="0 0 11.152 13.383">
  <path id="ballot" d="M10.364,13.383H4.788A2.791,2.791,0,0,1,2,10.594V2.788A2.791,2.791,0,0,1,4.788,0h5.576a2.791,2.791,0,0,1,2.788,2.788v7.806A2.791,2.791,0,0,1,10.364,13.383ZM4.788,1.115A1.675,1.675,0,0,0,3.115,2.788v7.806a1.675,1.675,0,0,0,1.673,1.673h5.576a1.675,1.675,0,0,0,1.673-1.673V2.788a1.675,1.675,0,0,0-1.673-1.673Zm6.134,2.23a.558.558,0,0,0-.558-.558H8.134a.558.558,0,0,0,0,1.115h2.23A.558.558,0,0,0,10.922,3.346Zm0,3.346a.558.558,0,0,0-.558-.558H8.134a.558.558,0,0,0,0,1.115h2.23A.558.558,0,0,0,10.922,6.691Zm0,3.346a.558.558,0,0,0-.558-.558H8.134a.558.558,0,1,0,0,1.115h2.23A.558.558,0,0,0,10.922,10.037ZM6.461,3.9V2.788A.558.558,0,0,0,5.9,2.23H4.788a.558.558,0,0,0-.558.558V3.9a.558.558,0,0,0,.558.558H5.9A.558.558,0,0,0,6.461,3.9Zm0,3.346V6.134A.558.558,0,0,0,5.9,5.576H4.788a.558.558,0,0,0-.558.558V7.249a.558.558,0,0,0,.558.558H5.9A.558.558,0,0,0,6.461,7.249Zm0,3.346V9.479A.558.558,0,0,0,5.9,8.922H4.788a.558.558,0,0,0-.558.558v1.115a.558.558,0,0,0,.558.558H5.9A.558.558,0,0,0,6.461,10.594Z" transform="translate(-2)" fill="#23699e"/>
</svg>
