<svg height="16.927" viewBox="0 0 12.695 16.927" width="12.695" xmlns="http://www.w3.org/2000/svg">
    <g data-name="user (7)" id="user_7_" transform="translate(-3)">
        <path d="M10.232,8.464A4.232,4.232,0,1,0,6,4.232a4.232,4.232,0,0,0,4.232,4.232Zm0-7.053A2.821,2.821,0,1,1,7.411,4.232a2.821,2.821,0,0,1,2.821-2.821Z" data-name="Path 21980"
            fill="#23699e"
            id="Path_21980" transform="translate(-0.884)" />
        <path d="M9.348,14A6.355,6.355,0,0,0,3,20.348a.705.705,0,1,0,1.411,0,4.937,4.937,0,1,1,9.874,0,.705.705,0,1,0,1.411,0A6.355,6.355,0,0,0,9.348,14Z" data-name="Path 21981"
            fill="#23699e"
            id="Path_21981" transform="translate(0 -4.126)" />
    </g>
</svg>
