<svg height="13.759" viewBox="0 0 13.774 13.759" width="13.774" xmlns="http://www.w3.org/2000/svg">
    <path d="M11.071,8.407a2.671,2.671,0,0,0-2.2,1.16L5.139,7.883a2.622,2.622,0,0,0,0-2L8.868,4.19a2.671,2.671,0,1,0-.474-1.515,2.656,2.656,0,0,0,.046.451l-3.961,1.8A2.676,2.676,0,1,0,4.47,8.839l3.971,1.793a2.715,2.715,0,0,0-.045.45,2.675,2.675,0,1,0,2.675-2.675Zm0-7.261A1.529,1.529,0,1,1,9.543,2.675a1.529,1.529,0,0,1,1.528-1.529ZM2.664,8.407A1.529,1.529,0,1,1,4.192,6.879,1.529,1.529,0,0,1,2.664,8.407Zm8.407,4.2A1.529,1.529,0,1,1,12.6,11.082a1.529,1.529,0,0,1-1.529,1.529Z"
        fill="#23699e"
        id="share" transform="translate(0.027 0.001)" />
</svg>
